<svg width="24" height="45" viewBox="0 0 24 45" fill="none" xmlns="http://www.w3.org/2000/svg">
<g clip-path="url(#clip0_1_5870)">
<path fill-rule="evenodd" clip-rule="evenodd" d="M0.565715 0.698096C0.724052 0.540269 0.912151 0.41505 1.11924 0.329612C1.32632 0.244174 1.54833 0.200195 1.77253 0.200195C1.99674 0.200195 2.21874 0.244174 2.42583 0.329612C2.63292 0.41505 2.82101 0.540269 2.97935 0.698096L23.4339 21.0353C23.5926 21.1927 23.7186 21.3797 23.8045 21.5856C23.8904 21.7915 23.9347 22.0122 23.9347 22.2351C23.9347 22.4581 23.8904 22.6788 23.8045 22.8847C23.7186 23.0906 23.5926 23.2776 23.4339 23.435L2.97935 43.7722C2.65928 44.0904 2.22518 44.2692 1.77253 44.2692C1.31989 44.2692 0.885783 44.0904 0.565715 43.7722C0.245647 43.454 0.0658339 43.0224 0.0658339 42.5723C0.0658339 42.1223 0.245647 41.6906 0.565715 41.3724L19.8169 22.2351L0.565715 3.09788C0.406976 2.94045 0.281034 2.75343 0.195103 2.54754C0.109172 2.34164 0.0649414 2.12091 0.0649414 1.89799C0.0649414 1.67507 0.109172 1.45434 0.195103 1.24844C0.281034 1.04254 0.406976 0.855525 0.565715 0.698096Z" fill="white"/>
</g>
<defs>
<clipPath id="clip0_1_5870">
<rect width="24" height="44.4706" fill="white"/>
</clipPath>
</defs>
</svg>
