<svg width="30" height="30" viewBox="0 0 30 30" fill="none" xmlns="http://www.w3.org/2000/svg">
<g clip-path="url(#clip0_1_1981)">
<path d="M25.5785 25.4624H21.1507V18.5282C21.1507 16.8747 21.1212 14.7461 18.8478 14.7461C16.5417 14.7461 16.1888 16.5477 16.1888 18.4078V25.4619H11.7612V11.2024H16.0117V13.1512H16.0713C16.4966 12.4238 17.1113 11.8254 17.8499 11.4198C18.5884 11.0142 19.4232 10.8165 20.2652 10.8477C24.7529 10.8477 25.5803 13.7996 25.5803 17.6398L25.5785 25.4624ZM6.76508 9.25338C5.34597 9.25361 4.19535 8.10334 4.19512 6.68423C4.19488 5.26513 5.34504 4.11451 6.76414 4.11427C8.18325 4.11392 9.33387 5.26419 9.3341 6.6833C9.33423 7.36478 9.06364 8.0184 8.58185 8.50038C8.10007 8.98236 7.44656 9.25322 6.76508 9.25338ZM8.97901 25.4625H4.54659V11.2024H8.97889V25.4624L8.97901 25.4625ZM27.7859 0.00217493H2.32169C1.11819 -0.0113659 0.131224 0.952719 0.116516 2.15622V27.7266C0.130757 28.9307 1.11761 29.8957 2.32157 29.8831H27.7859C28.9924 29.898 29.9831 28.933 29.9998 27.7266V2.15424C29.9826 0.9484 28.9918 -0.0155683 27.7859 0.000190493" fill="#0A66C2"/>
</g>
<defs>
<clipPath id="clip0_1_1981">
<rect width="30" height="29.8833" fill="white"/>
</clipPath>
</defs>
</svg>
