<svg width="17" height="16" viewBox="0 0 17 16" fill="none" xmlns="http://www.w3.org/2000/svg">
<g clip-path="url(#clip0_1_5019)">
<path d="M12.2424 10.3441C13.2107 9.02279 13.6444 7.38459 13.4567 5.75725C13.269 4.12991 12.4738 2.63344 11.2302 1.56723C9.98653 0.501022 8.38616 -0.0562959 6.74925 0.00677721C5.11233 0.0698504 3.55959 0.748663 2.40168 1.90741C1.24376 3.06615 0.56606 4.61938 0.504158 6.25633C0.442256 7.89329 1.00072 9.49326 2.06782 10.7361C3.13492 11.979 4.63195 12.7732 6.25943 12.9597C7.8869 13.1462 9.52479 12.7113 10.8454 11.7421H10.8444C10.8744 11.7821 10.9064 11.8201 10.9424 11.8571L14.7924 15.7071C14.9799 15.8947 15.2343 16.0002 15.4996 16.0003C15.7648 16.0004 16.0193 15.8951 16.2069 15.7076C16.3946 15.5201 16.5 15.2657 16.5001 15.0005C16.5002 14.7352 16.3949 14.4807 16.2074 14.2931L12.3574 10.4431C12.3217 10.4069 12.2832 10.3735 12.2424 10.3431V10.3441ZM12.5004 6.5001C12.5004 7.22237 12.3581 7.93757 12.0817 8.60486C11.8053 9.27215 11.4002 9.87847 10.8895 10.3892C10.3788 10.8999 9.77246 11.305 9.10517 11.5814C8.43788 11.8578 7.72268 12.0001 7.00041 12.0001C6.27814 12.0001 5.56294 11.8578 4.89565 11.5814C4.22836 11.305 3.62204 10.8999 3.11132 10.3892C2.6006 9.87847 2.19547 9.27215 1.91907 8.60486C1.64267 7.93757 1.50041 7.22237 1.50041 6.5001C1.50041 5.04141 2.07987 3.64246 3.11132 2.61101C4.14277 1.57956 5.54172 1.0001 7.00041 1.0001C8.4591 1.0001 9.85805 1.57956 10.8895 2.61101C11.9209 3.64246 12.5004 5.04141 12.5004 6.5001Z" fill="#23A6F0"/>
</g>
<defs>
<clipPath id="clip0_1_5019">
<rect width="16.0006" height="16.0003" fill="white" transform="translate(0.499512)"/>
</clipPath>
</defs>
</svg>
