<?xml version="1.0" encoding="UTF-8"?>
<svg xmlns="http://www.w3.org/2000/svg" xmlns:xlink="http://www.w3.org/1999/xlink" width="20px" height="20px" viewBox="0 0 20 20" version="1.1">
<g id="surface1">
<path style=" stroke:none;fill-rule:nonzero;fill:rgb(0%,0%,0%);fill-opacity:1;" d="M 18.382812 2.839844 C 17.335938 1.792969 15.949219 1.222656 14.472656 1.222656 C 12.992188 1.222656 11.601562 1.796875 10.554688 2.84375 L 10.007812 3.390625 L 9.449219 2.835938 C 8.402344 1.789062 7.007812 1.207031 5.527344 1.207031 C 4.054688 1.207031 2.664062 1.785156 1.621094 2.828125 C 0.574219 3.875 -0.00390625 5.265625 0 6.746094 C 0 8.226562 0.582031 9.613281 1.628906 10.660156 L 9.589844 18.621094 C 9.699219 18.730469 9.847656 18.792969 9.992188 18.792969 C 10.136719 18.792969 10.285156 18.738281 10.394531 18.625 L 18.375 10.675781 C 19.421875 9.628906 20 8.238281 20 6.757812 C 20.003906 5.277344 19.433594 3.886719 18.382812 2.839844 Z M 17.570312 9.867188 L 9.992188 17.414062 L 2.433594 9.855469 C 1.601562 9.023438 1.144531 7.921875 1.144531 6.746094 C 1.144531 5.570312 1.597656 4.46875 2.429688 3.640625 C 3.257812 2.816406 4.359375 2.359375 5.527344 2.359375 C 6.703125 2.359375 7.808594 2.816406 8.640625 3.644531 L 9.597656 4.605469 C 9.824219 4.828125 10.183594 4.828125 10.410156 4.605469 L 11.359375 3.65625 C 12.191406 2.824219 13.296875 2.367188 14.46875 2.367188 C 15.636719 2.367188 16.738281 2.824219 17.570312 3.652344 C 18.402344 4.480469 18.855469 5.585938 18.855469 6.757812 C 18.859375 7.933594 18.402344 9.035156 17.570312 9.867188 Z M 17.570312 9.867188 "/>
</g>
</svg>
